<svg preserveAspectRatio="none" width="100%" height="100%" overflow="visible" style="display: block;" viewBox="0 0 11.2274 11.2273" fill="none" xmlns="http://www.w3.org/2000/svg">
<path id="Vector" d="M10.1273 7.65625L8.5398 7.475C8.15855 7.43125 7.78355 7.5625 7.5148 7.83125L6.3648 8.98125C4.59605 8.08125 3.14605 6.6375 2.24605 4.8625L3.4023 3.70625C3.67105 3.4375 3.8023 3.0625 3.75855 2.68125L3.5773 1.10625C3.5023 0.475 2.97105 0 2.33355 0H1.2523C0.546046 0 -0.0414541 0.5875 0.00229592 1.29375C0.333546 6.63125 4.6023 10.8937 9.93355 11.225C10.6398 11.2687 11.2273 10.6812 11.2273 9.975V8.89375C11.2335 8.2625 10.7585 7.73125 10.1273 7.65625V7.65625Z" fill="var(--fill-0, #323232)"/>
</svg>
