<svg preserveAspectRatio="none" width="100%" height="100%" overflow="visible" style="display: block;" viewBox="0 0 102.838 22.1087" fill="none" xmlns="http://www.w3.org/2000/svg">
<path id="Vector" d="M0.0123107 0H14.1319V2.63433H8.58005V17.4432H5.52718V2.63433H0V0H0.0123107ZM13.5287 4.8132H16.1384V7.25057H16.1876C16.2738 6.90589 16.4338 6.57352 16.6677 6.25346C16.9016 5.9334 17.1847 5.62566 17.5171 5.36715C17.8495 5.09633 18.2188 4.88706 18.625 4.71472C19.0312 4.55469 19.4498 4.46852 19.8683 4.46852C20.1884 4.46852 20.4223 4.48083 20.5454 4.49314C20.6685 4.50545 20.7916 4.53007 20.927 4.54238V7.22595C20.73 7.18902 20.533 7.1644 20.3238 7.13978C20.1145 7.11516 19.9175 7.10285 19.7206 7.10285C19.2528 7.10285 18.8096 7.20133 18.3911 7.38598C17.9726 7.57063 17.6156 7.85376 17.3078 8.21075C17.0001 8.58005 16.7539 9.02321 16.5692 9.56485C16.3846 10.1065 16.2984 10.722 16.2984 11.4237V17.4309H13.5164V4.8132H13.5287ZM33.717 17.4432H30.9842V15.6829H30.935C30.5903 16.323 30.0856 16.8277 29.4085 17.2093C28.7315 17.5909 28.0421 17.7879 27.3405 17.7879C25.6786 17.7879 24.4722 17.3817 23.7336 16.5569C22.995 15.7321 22.6257 14.4888 22.6257 12.827V4.8132H25.4078V12.5562C25.4078 13.6641 25.6171 14.4519 26.0479 14.9074C26.4665 15.3628 27.0696 15.5967 27.8329 15.5967C28.4237 15.5967 28.9038 15.5106 29.2977 15.3259C29.6917 15.1413 30.0117 14.9074 30.2456 14.5996C30.4918 14.3042 30.6641 13.9349 30.7749 13.5163C30.8857 13.0978 30.935 12.6423 30.935 12.1499V4.82551H33.717V17.4432ZM38.4564 13.3932C38.5425 14.2057 38.8503 14.772 39.3796 15.1043C39.9213 15.4244 40.5614 15.5967 41.3123 15.5967C41.5708 15.5967 41.8662 15.5721 42.1986 15.5352C42.531 15.4983 42.851 15.4121 43.1342 15.3013C43.4296 15.1905 43.6635 15.0182 43.8604 14.7966C44.0451 14.575 44.1313 14.2919 44.119 13.9349C44.1066 13.5779 43.9712 13.2825 43.725 13.0609C43.4788 12.827 43.1711 12.6546 42.7895 12.5069C42.4079 12.3715 41.977 12.2484 41.4846 12.1499C40.9922 12.0515 40.4998 11.9407 39.9951 11.8299C39.4781 11.7191 38.9734 11.5714 38.4933 11.4113C38.0132 11.2513 37.5824 11.0297 37.2007 10.7466C36.8191 10.4758 36.5114 10.1188 36.2898 9.68795C36.0559 9.2571 35.9451 8.72777 35.9451 8.08765C35.9451 7.39829 36.1175 6.83203 36.4498 6.36426C36.7822 5.89648 37.2131 5.52718 37.7178 5.24405C38.2348 4.96092 38.801 4.76396 39.4289 4.64086C40.0567 4.53007 40.6599 4.46852 41.2261 4.46852C41.8785 4.46852 42.5064 4.54238 43.0972 4.67779C43.6881 4.8132 44.2297 5.03478 44.7098 5.35484C45.1899 5.66259 45.5838 6.06881 45.9039 6.56121C46.224 7.05361 46.4209 7.6568 46.5071 8.35847H43.6019C43.4665 7.69373 43.1711 7.23826 42.691 7.01668C42.2109 6.78279 41.657 6.672 41.0415 6.672C40.8445 6.672 40.6106 6.68431 40.3398 6.72124C40.069 6.75817 39.8228 6.81972 39.5766 6.90589C39.3427 6.99206 39.1457 7.12747 38.9734 7.29981C38.8134 7.47215 38.7272 7.69373 38.7272 7.97686C38.7272 8.32154 38.8503 8.59236 39.0842 8.80163C39.3181 9.0109 39.6258 9.18324 40.0074 9.33096C40.389 9.46637 40.8199 9.58947 41.3123 9.68795C41.8047 9.78643 42.3094 9.89722 42.8264 10.008C43.3311 10.1188 43.8235 10.2665 44.3159 10.4265C44.8083 10.5866 45.2392 10.8082 45.6208 11.0913C46.0024 11.3744 46.3101 11.7191 46.544 12.1376C46.7779 12.5562 46.901 13.0855 46.901 13.701C46.901 14.4519 46.7287 15.0797 46.384 15.609C46.0393 16.1261 45.5961 16.5569 45.0545 16.877C44.5129 17.197 43.8974 17.4432 43.2326 17.5909C42.5679 17.7387 41.9032 17.8125 41.2507 17.8125C40.4506 17.8125 39.712 17.7264 39.0349 17.5417C38.3579 17.3571 37.767 17.0862 37.2746 16.7292C36.7822 16.3599 36.3883 15.9045 36.1052 15.3628C35.822 14.8212 35.6743 14.1688 35.6497 13.4179H38.4564V13.3932ZM47.6396 4.8132H49.7446V1.02173H52.5267V4.8132H55.0379V6.89358H52.5267V13.6394C52.5267 13.9349 52.539 14.1811 52.5636 14.4027C52.5882 14.6119 52.6498 14.7966 52.7359 14.9443C52.8221 15.092 52.9575 15.2028 53.1422 15.2767C53.3268 15.3505 53.5607 15.3875 53.8808 15.3875C54.0777 15.3875 54.2747 15.3875 54.4716 15.3752C54.6686 15.3628 54.8656 15.3382 55.0625 15.289V17.4432C54.7548 17.4802 54.447 17.5048 54.1639 17.5417C53.8685 17.5786 53.573 17.5909 53.2653 17.5909C52.5267 17.5909 51.9358 17.5171 51.4926 17.3817C51.0495 17.2463 50.6925 17.037 50.4463 16.7662C50.1878 16.4954 50.0277 16.163 49.9293 15.7568C49.8431 15.3505 49.7815 14.8828 49.7692 14.3657V6.9182H47.6642V4.8132H47.6396ZM57.0075 4.8132H59.6418V6.52429H59.6911C60.085 5.78569 60.6266 5.26867 61.3283 4.94861C62.03 4.62855 62.7809 4.46852 63.6056 4.46852C64.6028 4.46852 65.4645 4.64086 66.2031 4.99785C66.9417 5.34253 67.5572 5.82262 68.0496 6.43811C68.542 7.05361 68.8989 7.76759 69.1451 8.58005C69.3913 9.39251 69.5144 10.2665 69.5144 11.1898C69.5144 12.0392 69.4036 12.8639 69.1821 13.6518C68.9605 14.4519 68.6281 15.1536 68.185 15.7691C67.7418 16.3846 67.1755 16.8647 66.4862 17.234C65.7968 17.6033 64.9967 17.7879 64.0611 17.7879C63.6549 17.7879 63.2487 17.751 62.8424 17.6771C62.4362 17.6033 62.0423 17.4802 61.673 17.3201C61.3037 17.1601 60.9467 16.9508 60.6389 16.6923C60.3189 16.4338 60.0604 16.1384 59.8388 15.806H59.7896V22.1087H57.0075V4.8132ZM66.7324 11.1405C66.7324 10.5743 66.6585 10.0203 66.5108 9.47868C66.3631 8.93704 66.1415 8.46926 65.8461 8.05072C65.5506 7.63218 65.1813 7.29981 64.7505 7.05361C64.3073 6.80741 63.8026 6.672 63.2363 6.672C62.0669 6.672 61.1806 7.07823 60.5897 7.89069C59.9988 8.70315 59.7034 9.78643 59.7034 11.1405C59.7034 11.7806 59.7772 12.3715 59.9373 12.9132C60.0973 13.4548 60.3189 13.9226 60.6389 14.3165C60.9467 14.7104 61.316 15.0182 61.7468 15.2397C62.1777 15.4736 62.6824 15.5844 63.2487 15.5844C63.8888 15.5844 64.4181 15.449 64.8613 15.1905C65.3044 14.932 65.6614 14.5873 65.9445 14.1811C66.2277 13.7625 66.4369 13.2948 66.56 12.7654C66.6708 12.2361 66.7324 11.6945 66.7324 11.1405ZM71.6441 0H74.4261V2.63433H71.6441V0ZM71.6441 4.8132H74.4261V17.4432H71.6441V4.8132ZM76.9127 0H79.6948V17.4432H76.9127V0ZM88.2256 17.7879C87.2162 17.7879 86.3176 17.6156 85.5297 17.2832C84.7419 16.9508 84.0771 16.4831 83.5232 15.9045C82.9816 15.3136 82.563 14.6119 82.2799 13.7995C81.9968 12.987 81.849 12.0884 81.849 11.1159C81.849 10.1557 81.9968 9.26941 82.2799 8.45695C82.563 7.64449 82.9816 6.94282 83.5232 6.35194C84.0648 5.76107 84.7419 5.3056 85.5297 4.97323C86.3176 4.64086 87.2162 4.46852 88.2256 4.46852C89.235 4.46852 90.1336 4.64086 90.9215 4.97323C91.7093 5.3056 92.3741 5.77338 92.928 6.35194C93.4697 6.94282 93.8882 7.64449 94.1713 8.45695C94.4545 9.26941 94.6022 10.1557 94.6022 11.1159C94.6022 12.0884 94.4545 12.987 94.1713 13.7995C93.8882 14.6119 93.4697 15.3136 92.928 15.9045C92.3864 16.4954 91.7093 16.9508 90.9215 17.2832C90.1336 17.6156 89.235 17.7879 88.2256 17.7879ZM88.2256 15.5844C88.8411 15.5844 89.3827 15.449 89.8382 15.1905C90.2937 14.932 90.663 14.5873 90.9584 14.1688C91.2539 13.7502 91.4631 13.2701 91.6109 12.7408C91.7463 12.2115 91.8201 11.6699 91.8201 11.1159C91.8201 10.5743 91.7463 10.0449 91.6109 9.5033C91.4754 8.96166 91.2539 8.49388 90.9584 8.07534C90.663 7.6568 90.2937 7.32443 89.8382 7.06592C89.3827 6.80741 88.8411 6.672 88.2256 6.672C87.6101 6.672 87.0685 6.80741 86.613 7.06592C86.1575 7.32443 85.7882 7.66911 85.4928 8.07534C85.1973 8.49388 84.9881 8.96166 84.8404 9.5033C84.7049 10.0449 84.6311 10.5743 84.6311 11.1159C84.6311 11.6699 84.7049 12.2115 84.8404 12.7408C84.9758 13.2701 85.1973 13.7502 85.4928 14.1688C85.7882 14.5873 86.1575 14.932 86.613 15.1905C87.0685 15.4613 87.6101 15.5844 88.2256 15.5844ZM95.4146 4.8132H97.5196V1.02173H100.302V4.8132H102.813V6.89358H100.302V13.6394C100.302 13.9349 100.314 14.1811 100.339 14.4027C100.363 14.6119 100.425 14.7966 100.511 14.9443C100.597 15.092 100.733 15.2028 100.917 15.2767C101.102 15.3505 101.336 15.3875 101.656 15.3875C101.853 15.3875 102.05 15.3875 102.247 15.3752C102.444 15.3628 102.641 15.3382 102.838 15.289V17.4432C102.53 17.4802 102.222 17.5048 101.939 17.5417C101.643 17.5786 101.348 17.5909 101.04 17.5909C100.302 17.5909 99.7108 17.5171 99.2677 17.3817C98.8245 17.2463 98.4675 17.037 98.2213 16.7662C97.9628 16.4954 97.8028 16.163 97.7043 15.7568C97.6181 15.3505 97.5566 14.8828 97.5443 14.3657V6.9182H95.4393V4.8132H95.4146Z" fill="var(--fill-0, #050505)"/>
</svg>
